# xmcd CD database file
#
# Track frame offsets:
#	150
#	10277
#	27509
#	39471
#	53558
#	65978
#	78760
#	95062
#	108072
#	123450
#	138415
#	151805
#	167522
#	183071
#	199330
#
# Disc length: 2850 seconds
#
# Revision: 0
# Processed by: cddbd v1.5.2PL0 Copyright (c) Steve Scherf et al.
# Submitted via: CDex 1.51
#
DISCID=bf0b200f
DTITLE=Benny Goodman - Aufnahmen von 1936-1946
DYEAR=1900
DGENRE=Jazz
TTITLE0=1. Alexander's Ragtime Band
TTITLE1=2. I Can't Give You Anything but Love, Baby
TTITLE2=3. My Melancholy Baby
TTITLE3=4. Liza
TTITLE4=5. Hora Stacato
TTITLE5=6. Ciribiribin
TTITLE6=7. Where or when
TTITLE7=8. Stardust
TTITLE8=9. Caravan
TTITLE9=10. All the Cats Join in
TTITLE10=11. Sugarfoot Stomp
TTITLE11=12. Honeysuckle Rose
TTITLE12=13. The Sheik
TTITLE13=14. Opus 1/2
TTITLE14=15. The Lady's in Love with You
EXTD=
EXTT0=
EXTT1=
EXTT2=
EXTT3=
EXTT4=
EXTT5=
EXTT6=
EXTT7=
EXTT8=
EXTT9=
EXTT10=
EXTT11=
EXTT12=
EXTT13=
EXTT14=
PLAYORDER=
